<?xml version="1.0" standalone="no"?>
<!DOCTYPE svg PUBLIC "-//W3C//DTD SVG 20010904//EN"
 "http://www.w3.org/TR/2001/REC-SVG-20010904/DTD/svg10.dtd">
<svg version="1.0" xmlns="http://www.w3.org/2000/svg"
 width="108.000000pt" height="108.000000pt" viewBox="0 0 108.000000 108.000000"
 preserveAspectRatio="xMidYMid meet">
<metadata>
Created by potrace 1.14, written by Peter Selinger 2001-2017
</metadata>
<g transform="translate(0.000000,108.000000) scale(0.100000,-0.100000)"
fill="#000000" stroke="none">
<path d="M17 872 c-15 -16 -17 -50 -17 -273 0 -326 -18 -299 200 -299 l160 0
0 -34 c0 -28 -4 -35 -22 -38 -13 -2 -24 -11 -26 -20 -3 -17 10 -18 168 -18
158 0 171 1 168 18 -2 9 -13 18 -26 20 -18 3 -22 10 -22 37 l0 34 100 3 100 3
0 -26 c0 -15 9 -38 21 -53 19 -25 25 -26 113 -26 84 0 95 2 114 23 21 22 22
32 22 221 0 196 0 197 -25 221 -15 16 -36 25 -55 25 l-30 0 0 83 c0 69 -3 87
-18 100 -17 15 -64 17 -464 17 -418 0 -446 -1 -461 -18z m913 -96 c0 -30 3
-61 6 -70 5 -13 -2 -16 -40 -16 -36 0 -52 -6 -71 -25 -24 -23 -25 -29 -25
-155 l0 -130 -385 0 -385 0 0 225 0 225 450 0 450 0 0 -54z m-20 -196 c0 -17
-7 -20 -40 -20 -33 0 -40 3 -40 20 0 17 7 20 40 20 33 0 40 -3 40 -20z m140 0
c0 -17 -7 -20 -49 -20 -44 0 -50 2 -48 20 1 17 8 20 49 20 41 0 48 -3 48 -20z
m-25 -65 c0 -18 -8 -20 -92 -23 l-93 -3 0 26 0 26 93 -3 c84 -3 92 -5 92 -23z
m-115 -85 c0 -16 -7 -20 -35 -20 -28 0 -35 4 -35 20 0 16 7 20 35 20 28 0 35
-4 35 -20z m120 0 c0 -17 -7 -20 -40 -20 -33 0 -40 3 -40 20 0 17 7 20 40 20
33 0 40 -3 40 -20z m15 -120 c-3 -5 -26 -10 -51 -10 -24 0 -44 5 -44 10 0 6
23 10 51 10 31 0 48 -4 44 -10z m-475 -39 c0 -16 6 -32 13 -34 6 -3 -35 -6
-93 -6 l-106 -1 4 35 4 35 89 0 89 0 0 -29z m380 -21 c0 -5 -4 -10 -9 -10 -6
0 -13 5 -16 10 -3 6 1 10 9 10 9 0 16 -4 16 -10z"/>
<path d="M61 792 c-11 -21 3 -52 23 -52 21 0 38 27 31 50 -8 25 -41 26 -54 2z
m39 -10 c0 -13 -12 -22 -22 -16 -10 6 -1 24 13 24 5 0 9 -4 9 -8z"/>
<path d="M187 743 c-4 -3 -7 -44 -7 -90 l0 -83 300 0 300 0 0 84 c0 67 -3 85
-16 90 -21 8 -569 8 -577 -1z m571 -67 c2 -27 1 -60 -3 -73 l-5 -23 -273 2
-272 3 -3 73 -3 72 278 -2 278 -3 3 -49z"/>
<path d="M193 554 c-9 -4 -13 -27 -13 -65 l0 -59 85 0 86 0 -3 63 -3 62 -70 2
c-38 1 -76 -1 -82 -3z m135 -61 l-3 -38 -62 -3 -63 -3 0 41 0 40 66 0 65 0 -3
-37z"/>
<path d="M387 538 c-7 -4 75 -8 182 -8 107 0 192 3 188 6 -8 9 -357 10 -370 2z"/>
<path d="M385 510 c8 -14 375 -14 375 0 0 6 -70 10 -191 10 -124 0 -188 -3
-184 -10z"/>
<path d="M483 473 c54 -2 139 -2 190 0 51 1 7 3 -98 3 -104 0 -146 -2 -92 -3z"/>
<path d="M385 450 c-4 -6 33 -10 104 -10 67 0 111 4 111 10 0 6 -41 10 -104
10 -59 0 -108 -4 -111 -10z"/>
</g>
</svg>
